<svg xmlns="http://www.w3.org/2000/svg" viewBox="0 0 32 32">
  <path d="M16.000248 0C7.1778488 0 0 7.1767668 0 15.998838c0 8.822968 7.1781476 16.00083 16.000248 16.00083 10.767769.06066 16.059017-8.211481 15.999251-16.00083C31.999499 7.1768664 24.824539 0 16.000248 0zm2.958696 5.2877246c.274643.00598.553051.059166.823918.1649787 1.235256.4829035 1.847853 1.8746988 1.365943 3.1119144l-.742398 1.8976083s-.732308 2.236969 1.253285 1.969624l1.623333-.242403c1.311058-.194562 2.535356.70927 2.729893 2.022316.194538 1.313047-.709447 2.535291-2.022567 2.729823l-.840065.127626-2.88648.447065c-.347228.05389-.582834.379213-.529951.726423.05488.348215.36969.520325.728393.527806l.06773.005.312056-.005c2.089007-.153116 2.8304 1.553865 2.550199 2.71269-.277542 1.14757-1.063928 1.769614-2.638452 2.104791v.000199l-6.676117.995679-.543767 1.390809c-.327277.843082-1.276295 1.25913-2.118492.930895-.842127-.32925-1.257169-1.275165-.930919-2.118237l.542791-1.392702-4.6775543-5.789842c-.8321464-1.034615-.6706-2.546347.3601176-3.380454 1.0327496-.833111 2.5474092-.672525 3.3795457.359132l.06186.07391.123735.138712c.218513.274377.616791.321202.893177.103691.273388-.217501.32121-.61558.103693-.892955l-1.15248-1.441807-1.215134-1.50466c-.8331514-1.032626-.671605-2.5451542.3601086-3.3792612 1.0317134-.8341071 2.5454174-.6725548 3.3795454.3600983l1.05566 1.3061435c1.26723 1.4756744 2.225073-.6316862 2.225073-.6316862l.745317-1.8976084c.37495-.9657772 1.308369-1.5515745 2.289222-1.5308563zm-1.454695 5.3040604c-.256115.01-.499401.168863-.59668.417302l-1.215134 3.116995-2.360841-2.925351c-.221511-.271389-.652441-.318164-.926835-.09761-.282372.228478-.32635.644476-.09782.925835l2.834782 3.509943-1.888892 4.843976-2.360841-2.926347c-.221511-.270392-.654443-.318164-.9268349-.09771-.2803804.229484-.3243579.644446-.097816.926811l2.8347819 3.509943-.449995 1.153447c-.131714.338234.03586.720356.374112.854058.0768.02898.15573.04393.237549.04393.274394 0 .515797-.1646.614579-.420021l.449019-1.153447 4.462001-.665532c.358205-.0519.60674-.386096.554854-.746274-.0519-.35221-.407024-.603607-.74727-.551732l-3.716823.552698 1.888892-4.844972 4.460008-.665533c.356203-.05289.605715-.387042.55582-.748216-.0509-.32427-.325244-.560876-.65252-.560876l-3.812548.560876 1.215334-3.115998c.131713-.338225-.03705-.721343-.375278-.854049-.08337-.03217-.170073-.04552-.255449-.04223z"/>
</svg>
